<?xml version="1.0" standalone="no"?>
<!DOCTYPE svg PUBLIC "-//W3C//DTD SVG 20010904//EN"
 "http://www.w3.org/TR/2001/REC-SVG-20010904/DTD/svg10.dtd">
<svg version="1.0" xmlns="http://www.w3.org/2000/svg"
 width="300.000000pt" height="300.000000pt" viewBox="0 0 300.000000 300.000000"
 preserveAspectRatio="xMidYMid meet">
<metadata>
Created by potrace 1.14, written by Peter Selinger 2001-2017
</metadata>
<g transform="translate(0.000000,300.000000) scale(0.100000,-0.100000)"
fill="#000000" stroke="none">
<path d="M0 1500 l0 -1500 1500 0 1500 0 0 1500 0 1500 -1500 0 -1500 0 0
-1500z m2830 1283 c1 -57 1 -2229 0 -2455 l0 -158 -74 0 -74 0 -7 57 c-4 32
-8 64 -10 73 -1 8 -6 38 -10 65 -5 28 -9 52 -10 55 -5 19 -16 69 -20 89 -2 13
-10 40 -17 60 -7 20 -13 38 -13 41 -1 3 -7 19 -14 35 -6 17 -17 42 -23 58 -16
42 -103 114 -184 153 -40 19 -76 35 -79 34 -3 0 -18 6 -33 14 -15 7 -76 31
-137 51 -60 21 -111 39 -111 39 -1 1 6 44 17 96 10 52 21 113 24 135 3 22 10
65 15 95 52 318 66 689 34 903 -16 112 -77 242 -145 306 -128 124 -297 178
-579 186 -234 8 -321 -24 -336 -123 -3 -16 4 -53 15 -81 13 -36 15 -51 7 -51
-19 0 -71 -60 -96 -109 -64 -128 -73 -224 -74 -771 0 -256 3 -500 7 -542 6
-60 5 -78 -5 -78 -13 0 -124 -40 -188 -67 -133 -57 -224 -120 -257 -178 -40
-72 -106 -311 -119 -435 -3 -25 -6 -58 -8 -75 -3 -30 -3 -30 -75 -33 -39 -2
-72 1 -72 5 -4 23 -5 2630 -1 2641 3 9 278 12 1328 12 l1324 0 0 -47z"/>
</g>
</svg>
